#define resize_width  16
#define resize_height 16
static unsigned char resize_bits[] = {
   0x00, 0xfc, 0x00, 0xfc, 0xf0, 0xff, 0xe0, 0xff, 0xc4, 0xff, 0x8c, 0xff,
   0x1c, 0xff, 0x3c, 0xfe, 0x7c, 0xfc, 0xfc, 0xf8, 0xff, 0xf1, 0xff, 0xe3,
   0xff, 0xc7, 0xff, 0x8f, 0xff, 0x1f, 0xff, 0x3f};
