#define resize_white_mask_width 16
#define resize_white_mask_height 16
static unsigned char resize_white_mask_bits[] = {
   0xff, 0x03, 0xff, 0x03, 0x0f, 0x00, 0x1f, 0x00, 0x3b, 0x00, 0x73, 0x00,
   0xe3, 0x00, 0xc3, 0x01, 0x83, 0x03, 0x03, 0x07, 0x00, 0x0e, 0x00, 0x1c,
   0x00, 0x38, 0x00, 0x70, 0x00, 0xe0, 0x00, 0xc0};

